# File created by Blade
# Date/Time:  Wed Apr 08 14:10:35 2015
# Frame Rate: 120.000 fps
#------------------------------------------------------
:FULLY-SPECIFIED
:DEGREES
604
root 0.945871 32.828273 19.643125 20.537337 -0.709287 -5.859077
Spine -6.394606 -7.224533 -0.882082
Head -2.157512 -2.400858 5.841124
LeftShoulder -18.930579 43.235642 15.403098
LeftArm 65.983869 -36.850293 -75.292785
LeftForeArm 0.849627 -0.000000 6.146511
LeftHand 15.049736 -0.000000 18.083649
LeftHandThumb1 -26.253704 0.000000 33.147579
RightShoulder -5.404577 0.418170 -24.177298
RightArm 14.441980 10.368019 55.987062
RightForeArm -10.048958 -0.000000 19.402575
RightHand 12.399969 -0.000000 -12.207725
RightHandThumb1 -24.326973 -0.000000 -32.862282
LeftUpLeg -35.426088 -5.140877 6.178771
LeftLeg 28.650571 -0.000000 -0.000000
LeftFoot -2.184863 5.147189 -12.479245
LeftToeBase -29.303438 -0.000000 0.000000
RightUpLeg -26.006453 8.049387 7.395992
RightLeg 38.712524 -0.000000 -0.000000
RightFoot -17.223040 -6.991763 17.134641
RightToeBase -9.880636 -0.000000 0.000000
605
root 0.953825 32.842374 19.630772 20.319688 -0.774480 -5.797948
Spine -6.480949 -7.050697 -0.811654
Head -2.058250 -2.472411 5.689934
LeftShoulder -19.062895 43.338130 15.399693
LeftArm 66.003672 -37.328500 -75.288187
LeftForeArm 0.749063 -0.000000 6.011288
LeftHand 15.069570 -0.000000 17.924222
LeftHandThumb1 -26.253704 0.000000 33.147579
RightShoulder -5.480590 0.353755 -24.231671
RightArm 14.484649 10.295572 55.797503
RightForeArm -10.119771 -0.000000 19.025680
RightHand 12.524074 0.000000 -12.106425
RightHandThumb1 -24.326973 -0.000000 -32.862282
LeftUpLeg -35.096420 -4.963576 6.012479
LeftLeg 28.385955 -0.000000 -0.000000
LeftFoot -1.978656 5.008099 -12.439175
LeftToeBase -29.255321 -0.000000 0.000000
RightUpLeg -25.573709 7.997826 7.412578
RightLeg 38.223115 -0.000000 -0.000000
RightFoot -17.004761 -7.257448 17.139825
RightToeBase -10.255503 -0.000000 0.000000
606
root 0.956350 32.858885 19.613370 20.121101 -0.842239 -5.736823
Spine -6.584345 -6.899933 -0.761903
Head -1.953000 -2.527042 5.567670
LeftShoulder -19.199231 43.407641 15.434694
LeftArm 65.993355 -37.855331 -75.302725
LeftForeArm 0.820966 -0.000000 5.878097
LeftHand 14.943834 -0.000000 17.674238
LeftHandThumb1 -26.253704 0.000000 33.147579
RightShoulder -5.528110 0.337865 -24.259895
RightArm 14.481117 10.180840 55.552769
RightForeArm -10.080969 -0.000000 18.688675
RightHand 12.302772 -0.000000 -11.816853
RightHandThumb1 -24.326973 -0.000000 -32.862282
LeftUpLeg -34.773741 -4.808594 5.863323
LeftLeg 28.071422 -0.000000 -0.000000
LeftFoot -1.753869 4.930662 -12.467781
LeftToeBase -29.246782 -0.000000 0.000000
RightUpLeg -25.157011 7.989833 7.423686
RightLeg 37.714656 -0.000000 -0.000000
RightFoot -16.749773 -7.632402 16.943974
RightToeBase -10.305136 -0.000000 0.000000
607
root 0.958771 32.877365 19.596273 19.926932 -0.889791 -5.670719
Spine -6.709164 -6.774218 -0.697775
Head -1.800379 -2.594259 5.433556
LeftShoulder -19.348710 43.502386 15.432559
LeftArm 65.944106 -38.391681 -75.260059
LeftForeArm 0.818110 -0.000000 5.804624
LeftHand 14.802925 0.000000 17.615242
LeftHandThumb1 -26.253704 0.000000 33.147579
RightShoulder -5.595867 0.196983 -24.282198
RightArm 14.574828 10.246364 55.355657
RightForeArm -10.050056 0.000000 18.428230
RightHand 12.272458 -0.000000 -11.752705
RightHandThumb1 -24.326973 -0.000000 -32.862282
LeftUpLeg -34.452048 -4.669719 5.714121
LeftLeg 27.748125 -0.000000 -0.000000
LeftFoot -1.534715 4.874174 -12.486059
LeftToeBase -29.231216 -0.000000 0.000000
RightUpLeg -24.718267 7.958087 7.425709
RightLeg 37.076627 -0.000000 -0.000000
RightFoot -16.259371 -8.112370 16.696134
RightToeBase -10.847148 -0.000000 0.000000
608
root 0.960396 32.899307 19.576796 19.746438 -0.916405 -5.626130
Spine -6.843344 -6.660432 -0.608544
Head -1.649054 -2.661838 5.314062
LeftShoulder -19.503736 43.593134 15.430982
LeftArm 65.920198 -38.945966 -75.229116
LeftForeArm 0.710543 -0.000000 5.712746
LeftHand 14.727009 -0.000000 17.529424
LeftHandThumb1 -26.253704 0.000000 33.147579
RightShoulder -5.669737 0.135349 -24.302406
RightArm 14.594642 10.326770 55.133255
RightForeArm -10.044500 -0.000000 18.132142
RightHand 12.281383 -0.000000 -11.566641
RightHandThumb1 -24.326973 -0.000000 -32.862282
LeftUpLeg -34.113027 -4.609900 5.633147
LeftLeg 27.346752 -0.000000 -0.000000
LeftFoot -1.316294 4.842091 -12.521777
LeftToeBase -29.111671 -0.000000 0.000000
RightUpLeg -24.250716 8.002261 7.453580
RightLeg 36.297957 -0.000000 -0.000000
RightFoot -15.389384 -8.937998 15.878062
RightToeBase -11.162522 -0.000000 0.000000
